<svg xmlns="http://www.w3.org/2000/svg" width="350" height="296" viewBox="0 0 349.706 295.883"><rect x="0" y="0" width="349.706484" height="295.882968" fill="white" /><line x1="51.941" y1="210.001" x2="18.000" y2="243.942" stroke="black" stroke-width="1.3" fill="none" /><line x1="51.941" y1="85.882" x2="18.000" y2="51.941" stroke="black" stroke-width="1.3" fill="none" /><line x1="85.882" y1="243.942" x2="51.941" y2="277.883" stroke="black" stroke-width="1.3" fill="none" /><line x1="85.882" y1="51.941" x2="51.941" y2="18.000" stroke="black" stroke-width="1.3" fill="none" /><line x1="210.001" y1="243.942" x2="243.942" y2="277.883" stroke="black" stroke-width="1.3" fill="none" /><line x1="210.001" y1="51.941" x2="243.942" y2="18.000" stroke="black" stroke-width="1.3" fill="none" /><line x1="243.942" y1="210.001" x2="277.883" y2="243.942" stroke="black" stroke-width="1.3" fill="none" /><line x1="243.942" y1="85.882" x2="277.883" y2="51.941" stroke="black" stroke-width="1.3" fill="none" /><line x1="259.706" y1="171.941" x2="307.706" y2="171.941" stroke="gray" stroke-width="1.0" fill="none" stroke-dasharray="5 3" /><line x1="259.706" y1="123.941" x2="307.706" y2="123.941" stroke="gray" stroke-width="1.0" fill="none" stroke-dasharray="5 3" /><path d="M 18.000 243.942 A 24.000 24.000 0 1 1 51.941 277.883" stroke="black" stroke-width="1.3" fill="none" /><path d="M 51.941 85.882 A 24.000 24.000 0 1 1 85.882 51.941" stroke="black" stroke-width="1.3" fill="none" /><path d="M 51.941 18.000 A 24.000 24.000 0 1 1 18.000 51.941" stroke="black" stroke-width="1.3" fill="none" /><path d="M 85.882 243.942 A 24.000 24.000 0 1 1 51.941 210.001" stroke="black" stroke-width="1.3" fill="none" /><path d="M 210.001 51.941 A 24.000 24.000 0 1 1 243.942 85.882" stroke="black" stroke-width="1.3" fill="none" /><path d="M 243.942 277.883 A 24.000 24.000 0 1 1 277.883 243.942" stroke="black" stroke-width="1.3" fill="none" /><path d="M 243.942 210.001 A 24.000 24.000 0 1 1 210.001 243.942" stroke="black" stroke-width="1.3" fill="none" /><path d="M 277.883 51.941 A 24.000 24.000 0 1 1 243.942 18.000" stroke="black" stroke-width="1.3" fill="none" /><path d="M 259.706 123.941 A 24.000 24.000 0 0 1 259.706 171.941" stroke="gray" stroke-width="1.0" fill="none" stroke-dasharray="5 3" /><path d="M 307.706 171.941 A 24.000 24.000 0 1 1 307.706 123.941" stroke="gray" stroke-width="1.0" fill="none" stroke-dasharray="5 3" /><circle cx="147.941" cy="147.941" r="16.500" stroke="gray" stroke-width="1.0" fill="none" stroke-dasharray="5 3" /><g font-size="12" font-family="monospace" fill="black"><text x="8" y="18">Edge.Cuts (black) &#8212; User.2 (gray dashed)</text></g></svg>